# xmcd CD database file
#
# Track frame offsets:
#	150
#	16225
#	28282
#	42070
#	58877
#	76035
#	94160
#	110657
#	130090
#	147077
#	163330
#	177667
#
# Disc length: 2682 seconds
#
# Revision: 0
# Processed by: cddbd v1.5.1PL0 Copyright (c) Steve Scherf et al.
# Submitted via: CDex 1.51
#
DISCID=a20a780c
DTITLE=Shania Twain - Impressions Of A Woman
DYEAR=1900
DGENRE=Country
TTITLE0=For The Love Of Him
TTITLE1=Bite My Lip
TTITLE2=Wild And Wicked
TTITLE3=Send It With Love
TTITLE4=(Don't Give Me That) Once Over
TTITLE5=Hate To Love
TTITLE6=Luv Eyes
TTITLE7=I Lost My Heart When I Found You
TTITLE8=The Rhythm Made Me Do It
TTITLE9=Two Hearts One Love
TTITLE10=Half Breed
TTITLE11=For The Love Of Him (Dance Mix)
EXTD=
EXTT0=
EXTT1=
EXTT2=
EXTT3=
EXTT4=
EXTT5=
EXTT6=
EXTT7=
EXTT8=
EXTT9=
EXTT10=
EXTT11=
PLAYORDER=
